<?xml version="1.0" standalone="no"?>
<!DOCTYPE svg PUBLIC "-//W3C//DTD SVG 20010904//EN"
 "http://www.w3.org/TR/2001/REC-SVG-20010904/DTD/svg10.dtd">
<svg version="1.0" xmlns="http://www.w3.org/2000/svg"
 width="1024.000000pt" height="1024.000000pt" viewBox="0 0 1024.000000 1024.000000"
 preserveAspectRatio="xMidYMid meet">

<g transform="translate(0.000000,1024.000000) scale(0.100000,-0.100000)"
fill="#000000" stroke="none">
<path d="M1175 10003 c-11 -3 -24 -9 -29 -14 -6 -5 -16 -9 -24 -9 -26 0 -247
-116 -342 -180 -238 -159 -455 -450 -520 -695 -14 -53 -38 -148 -52 -210 -18
-82 -17 -465 1 -556 l14 -66 101 -51 c56 -29 124 -66 151 -82 28 -17 57 -33
65 -37 43 -19 386 -258 420 -293 3 -3 30 -25 60 -50 160 -131 450 -421 580
-580 25 -30 47 -57 50 -60 7 -7 57 -72 127 -165 64 -86 303 -441 303 -450 0
-4 13 -26 30 -50 16 -24 30 -46 30 -49 0 -3 13 -27 28 -53 66 -112 183 -339
245 -473 61 -131 87 -190 87 -195 0 -3 9 -27 21 -53 26 -59 32 -73 59 -147 12
-33 26 -69 30 -80 5 -11 18 -49 30 -85 38 -117 38 -116 83 -130 23 -6 53 -16
66 -21 13 -6 26 -7 29 -4 5 5 -66 231 -88 280 -5 11 -18 49 -30 85 -12 36 -25
74 -30 85 -4 11 -13 36 -20 55 -7 19 -16 44 -20 55 -118 293 -121 307 -81 356
16 19 29 24 68 24 68 0 78 -12 138 -170 15 -38 31 -79 35 -90 17 -41 42 -111
56 -155 8 -25 19 -54 24 -65 5 -11 18 -49 30 -85 11 -36 25 -73 30 -82 6 -10
10 -27 10 -37 0 -11 5 -23 10 -26 6 -3 10 -17 10 -30 0 -13 5 -27 10 -30 6 -3
10 -17 10 -30 0 -13 5 -27 10 -30 6 -3 10 -16 10 -29 0 -12 3 -26 7 -30 12
-12 33 -80 33 -108 0 -21 5 -28 19 -28 11 0 23 -4 26 -10 3 -5 13 -10 21 -10
8 0 36 -9 62 -21 26 -12 56 -25 67 -29 11 -4 87 -40 168 -80 106 -52 154 -70
170 -66 12 4 59 11 105 15 46 5 87 12 92 17 6 6 1 34 -10 69 -48 154 -60 236
-60 424 0 89 4 181 9 204 5 23 15 69 22 102 19 97 67 232 121 343 28 56 54
105 59 108 11 6 12 54 2 54 -28 0 -271 207 -394 336 -292 303 -502 664 -609
1044 -7 25 -16 56 -20 70 -12 38 -41 186 -61 310 -8 44 -13 178 -13 325 -1
242 -2 250 -21 253 -192 27 -593 131 -667 172 -10 6 -22 10 -28 10 -19 0 -245
108 -332 158 -132 76 -293 217 -379 332 -79 106 -144 250 -178 397 -14 60 -16
323 -2 371 10 34 8 35 -34 25z m-186 -689 c25 -20 31 -34 31 -63 0 -32 -10
-51 -59 -111 -101 -123 -151 -247 -165 -405 -6 -74 5 -209 25 -285 6 -25 13
-65 16 -90 4 -40 1 -49 -23 -73 -20 -21 -36 -27 -69 -27 -74 0 -93 36 -135
258 -23 119 -7 325 35 447 20 60 82 191 99 208 6 7 22 28 35 47 14 19 44 54
68 78 54 51 95 56 142 16z m823 -825 c29 -6 78 -15 108 -20 82 -15 240 -58
295 -79 11 -4 36 -13 55 -20 117 -40 271 -113 295 -139 28 -32 26 -93 -4 -125
-33 -36 -83 -34 -168 5 -65 30 -87 39 -143 62 -14 5 -34 13 -45 18 -11 4 -36
12 -55 18 -19 6 -55 17 -80 25 -116 36 -259 63 -395 75 -113 10 -268 -3 -360
-30 -22 -6 -63 -14 -91 -16 -47 -4 -53 -2 -77 27 -45 52 -31 117 32 146 36 17
56 23 161 48 69 17 398 20 472 5z"/>
<path d="M3525 8908 c-49 -28 -53 -42 -70 -203 -15 -150 -8 -183 45 -210 34
-17 76 -10 103 17 22 22 37 78 37 141 0 33 5 88 11 122 10 54 10 65 -6 89 -18
27 -63 56 -87 56 -7 0 -22 -6 -33 -12z"/>
<path d="M3543 8018 c-37 -41 -43 -62 -32 -104 6 -21 15 -55 20 -74 14 -56 50
-173 59 -195 4 -11 16 -40 25 -65 42 -113 76 -180 98 -192 49 -26 118 -4 138
44 13 32 9 52 -33 148 -34 78 -36 83 -66 175 -31 96 -48 154 -57 197 -3 14
-17 40 -31 57 -33 39 -89 43 -121 9z"/>
<path d="M7560 7959 c-215 -9 -370 -23 -620 -58 -102 -14 -108 -17 -116 -59
-3 -21 -10 -50 -15 -67 -36 -125 -51 -173 -58 -190 -5 -11 -24 -58 -42 -105
-45 -115 -201 -422 -250 -492 -11 -14 -19 -29 -19 -32 0 -7 -211 -325 -250
-376 -15 -19 -46 -62 -71 -95 -52 -70 -40 -54 -175 -225 -59 -74 -110 -137
-113 -140 -3 -3 -31 -34 -61 -70 -30 -36 -57 -67 -60 -70 -3 -3 -34 -39 -70
-80 -97 -111 -167 -187 -369 -400 -81 -85 -107 -125 -211 -325 -169 -325 -247
-429 -368 -487 -69 -32 -107 -34 -257 -9 -189 32 -576 38 -740 10 -33 -5 -87
-14 -120 -20 l-60 -10 -145 73 c-80 40 -165 81 -190 91 -46 19 -68 28 -117 48
-55 23 -69 28 -108 40 -22 7 -44 16 -50 19 -5 4 -30 12 -55 20 -25 7 -65 20
-90 28 -25 8 -60 18 -77 23 -39 11 -94 26 -143 40 -169 49 -322 76 -482 85
l-127 7 -17 -39 c-9 -22 -20 -48 -24 -59 -5 -11 -22 -50 -39 -87 -17 -37 -31
-71 -31 -76 0 -11 -39 -46 -68 -61 -35 -18 -88 4 -107 46 -18 38 -14 77 14
127 10 17 28 58 40 91 13 33 27 69 31 80 13 30 70 201 70 210 0 4 -12 4 -27 1
-99 -23 -229 -138 -279 -246 -54 -114 -60 -136 -83 -300 -16 -112 -17 -115
-50 -137 -43 -29 -59 -29 -102 0 -33 22 -34 25 -37 97 -9 206 88 459 232 608
l50 52 4 136 c3 81 0 140 -5 145 -11 11 -143 -126 -143 -147 0 -7 -4 -14 -8
-16 -8 -3 -40 -56 -82 -133 -52 -100 -125 -304 -159 -447 -27 -118 -30 -132
-61 -345 -5 -39 -10 -131 -10 -202 0 -72 -5 -210 -11 -306 -12 -193 -11 -198
44 -208 17 -3 58 -11 90 -16 33 -6 67 -13 78 -16 19 -6 19 -7 128 166 32 51
52 71 89 90 63 31 179 110 218 148 52 50 124 147 124 167 0 4 -34 4 -75 0
-107 -10 -144 14 -145 91 0 74 44 94 289 123 186 22 470 2 659 -46 181 -47
224 -62 340 -115 35 -16 65 -29 67 -29 3 0 44 -23 92 -52 124 -74 227 -151
311 -233 77 -76 86 -101 59 -155 -14 -28 -66 -49 -103 -42 -13 2 -58 35 -101
73 -43 38 -81 69 -85 69 -11 0 -10 -34 1 -62 5 -13 15 -43 21 -68 22 -78 42
-135 91 -262 43 -110 148 -283 233 -383 72 -85 210 -205 235 -205 5 0 11 -3
13 -8 2 -4 29 -23 61 -42 31 -19 57 -38 57 -42 0 -4 6 -8 13 -8 7 0 22 -8 33
-17 10 -10 54 -42 97 -72 73 -49 82 -53 120 -47 59 8 144 24 197 36 165 37
214 42 285 29 39 -7 74 -16 79 -21 6 -4 16 -8 24 -8 28 0 132 -82 260 -206
122 -119 132 -132 132 -165 0 -65 -71 -111 -132 -86 -15 7 -83 66 -153 132
-69 66 -145 130 -168 142 -46 25 -140 31 -206 14 -20 -5 -63 -15 -96 -21 -206
-40 -256 -53 -301 -82 -53 -33 -99 -103 -108 -161 -6 -38 1 -124 22 -277 15
-108 63 -176 150 -217 45 -20 120 -70 147 -98 103 -102 159 -306 103 -369 -24
-27 -61 -38 -188 -56 -123 -18 -163 -29 -200 -59 -65 -52 -75 -81 -75 -220 l0
-124 27 -8 c26 -7 29 -4 59 58 49 103 126 171 239 214 23 9 90 13 210 14 l175
0 7 35 c4 19 11 64 17 100 26 165 32 209 41 260 5 30 14 89 20 130 44 295 51
328 76 351 32 30 96 30 129 -1 21 -20 25 -33 25 -84 0 -34 -5 -77 -10 -96 -16
-55 -14 -169 5 -235 9 -33 20 -73 25 -90 10 -39 58 -184 70 -212 6 -13 15 -34
20 -48 6 -14 15 -36 20 -50 23 -57 31 -75 85 -185 57 -118 61 -125 132 -245
135 -229 366 -478 563 -608 187 -123 650 -212 933 -178 128 15 178 26 295 63
120 37 291 120 349 168 45 37 313 231 351 254 8 5 35 -1 65 -14 44 -19 62 -22
127 -16 351 29 514 217 575 664 5 41 4 42 -19 36 -58 -14 -204 35 -280 95 -51
41 -114 120 -121 153 -4 15 -12 28 -18 28 -7 0 -48 -24 -92 -52 -111 -73 -261
-225 -303 -308 -58 -116 -60 -283 -7 -431 15 -41 29 -82 32 -91 8 -27 -145
-168 -247 -228 -61 -35 -177 -90 -192 -90 -9 0 -19 -4 -22 -9 -3 -5 -18 -12
-33 -15 -16 -4 -46 -11 -68 -17 -367 -93 -736 -73 -1005 54 -102 48 -178 103
-266 191 -147 148 -255 343 -312 561 -29 113 -32 150 -32 373 1 764 -130 1421
-330 1657 -55 65 -66 114 -32 151 9 10 43 49 76 86 174 201 494 400 751 468
140 37 171 44 305 69 95 17 378 34 463 27 141 -11 290 -25 334 -32 47 -7 40
-18 65 101 6 28 14 61 18 75 4 14 13 45 20 70 16 55 68 217 79 245 5 11 14 34
21 50 7 17 16 39 20 50 27 73 145 297 203 385 163 247 277 371 518 564 31 25
138 96 144 96 4 0 19 8 33 18 56 39 270 142 295 142 7 0 17 4 22 8 10 9 113
41 193 61 23 6 59 16 81 21 21 6 50 10 64 10 37 0 57 25 57 71 0 37 4 61 32
179 76 326 268 579 538 711 107 52 140 65 225 87 88 23 145 31 243 38 56 3
102 10 102 16 0 19 -66 131 -118 201 -175 232 -404 400 -722 529 -14 6 -33 14
-42 19 -10 5 -27 9 -37 9 -11 0 -22 4 -25 9 -3 5 -16 11 -28 14 -13 3 -39 10
-58 16 -424 121 -873 164 -1450 140z m-453 -231 c51 -23 58 -37 57 -108 -1
-76 -18 -156 -70 -315 -47 -148 -150 -376 -231 -515 -14 -25 -34 -58 -43 -75
-49 -86 -86 -145 -161 -257 -76 -114 -197 -286 -209 -298 -3 -3 -25 -32 -50
-65 -45 -60 -147 -189 -186 -235 -12 -14 -57 -68 -100 -120 -43 -52 -81 -97
-84 -100 -3 -3 -43 -48 -90 -100 -47 -52 -112 -124 -145 -160 -34 -36 -97
-104 -141 -151 -43 -48 -94 -94 -112 -103 -79 -41 -168 37 -131 114 8 16 73
91 145 167 72 76 148 158 170 183 21 25 41 47 44 50 3 3 39 43 80 90 41 47 77
87 80 90 3 3 25 30 50 60 25 30 47 57 50 60 4 3 36 43 74 90 37 47 73 93 81
102 40 49 197 261 235 318 24 36 48 70 52 75 17 22 148 226 148 231 0 3 9 18
20 34 48 67 178 326 231 458 5 12 13 32 18 45 17 41 34 98 62 202 24 91 29
115 29 139 0 34 25 73 59 91 32 18 34 18 68 3z m275 -439 c101 -20 260 -64
290 -80 10 -5 22 -9 28 -9 36 0 378 -178 400 -209 3 -4 21 -18 40 -31 57 -40
189 -166 275 -266 74 -85 206 -303 246 -407 66 -174 70 -198 35 -242 -20 -25
-31 -30 -69 -30 -66 0 -81 17 -117 130 -28 91 -162 343 -199 375 -4 3 -20 23
-36 45 -57 77 -211 218 -310 284 -180 121 -364 198 -575 241 -105 22 -126 31
-145 62 -29 50 -13 105 40 136 25 14 31 14 97 1z m-439 -1133 c30 -27 46 -64
87 -191 43 -134 56 -195 81 -360 16 -104 16 -522 0 -645 -24 -187 -71 -438
-101 -530 -4 -14 -15 -50 -25 -82 -21 -71 -44 -93 -100 -93 -85 0 -107 51 -75
171 39 140 71 294 89 424 5 36 12 79 15 95 3 17 10 101 17 187 12 160 2 403
-22 521 -5 26 -14 71 -19 100 -19 93 -53 203 -83 266 -7 13 -12 43 -12 67 0
35 5 47 30 68 39 33 83 34 118 2z m-5690 -1715 c73 -28 91 -115 36 -170 -38
-39 -102 -43 -138 -10 -88 83 -9 222 102 180z"/>
<path d="M3974 7145 c-36 -15 -52 -33 -55 -65 -4 -44 1 -66 19 -86 9 -11 33
-40 52 -64 95 -123 298 -326 420 -420 25 -19 47 -37 50 -40 3 -3 21 -17 40
-30 19 -13 37 -27 40 -30 8 -9 91 -64 122 -79 69 -35 148 45 119 122 -6 14
-38 44 -73 68 -64 44 -114 81 -189 141 -62 49 -308 292 -354 349 -112 140
-136 157 -191 134z"/>
<path d="M9475 5289 c-22 -5 -65 -15 -95 -21 -30 -6 -109 -29 -174 -50 -199
-66 -314 -122 -489 -240 -83 -55 -167 -119 -207 -157 -9 -9 -15 -33 -15 -61 0
-50 11 -67 59 -88 36 -16 61 -3 188 94 51 40 110 81 131 93 20 12 53 30 72 41
82 47 102 57 145 74 25 10 59 24 75 31 96 43 262 87 391 105 117 16 144 36
144 103 0 39 -4 49 -29 66 -32 23 -120 27 -196 10z"/>
<path d="M8249 4537 c-24 -21 -92 -116 -118 -165 -18 -35 4 -87 46 -107 65
-31 101 -7 191 127 41 60 41 97 1 137 -38 38 -82 41 -120 8z"/>
<path d="M7887 3868 c-13 -18 -34 -67 -46 -108 -13 -41 -27 -86 -31 -100 -13
-43 -45 -169 -59 -230 -31 -143 -33 -161 -21 -190 24 -58 89 -77 140 -40 27
19 33 36 60 160 6 30 16 78 22 105 6 28 14 61 18 75 4 14 13 45 20 70 6 25 16
53 21 62 5 10 9 27 9 37 0 11 4 22 9 25 5 3 12 26 15 50 11 74 -21 115 -91
116 -36 0 -45 -5 -66 -32z"/>
<path d="M3664 2913 c-3 -10 -10 -27 -14 -38 -5 -11 -23 -63 -40 -115 -17 -52
-35 -103 -40 -112 -6 -10 -10 -25 -10 -33 0 -8 -4 -23 -10 -33 -5 -9 -23 -60
-40 -112 -17 -52 -35 -104 -39 -115 -5 -11 -14 -33 -20 -48 -17 -42 -13 -88
10 -127 12 -19 24 -37 28 -40 5 -4 44 -54 91 -115 8 -11 33 -38 55 -60 37 -37
47 -41 123 -53 46 -7 100 -22 120 -33 46 -26 115 -92 133 -127 25 -51 36 -58
79 -54 39 4 41 6 35 29 -10 41 -73 100 -143 135 -135 67 -226 192 -250 343
-31 191 -38 322 -21 382 19 70 55 138 94 182 19 21 35 43 35 48 0 10 -149 113
-163 113 -4 0 -10 -8 -13 -17z"/>
<path d="M8415 1985 c0 -72 4 -114 10 -112 12 4 19 146 10 195 -12 64 -20 30
-20 -83z"/>
<path d="M7920 1962 c0 -22 -9 -74 -20 -117 l-20 -79 35 -53 c31 -47 38 -52
56 -43 19 11 19 13 -14 58 -34 46 -34 48 -20 87 8 22 17 73 20 113 6 69 5 72
-16 72 -18 0 -21 -6 -21 -38z"/>
<path d="M8655 1892 c-66 -23 -147 -71 -140 -83 4 -5 23 2 43 16 20 14 65 34
99 46 35 11 63 25 63 30 0 12 -7 11 -65 -9z"/>
<path d="M8338 1819 c-23 -13 -23 -62 -2 -95 35 -52 124 -72 158 -35 54 60
-82 173 -156 130z"/>
<path d="M7518 1790 c-14 -9 -13 -16 14 -69 l31 -58 100 -7 c56 -4 104 -9 109
-12 4 -3 13 -23 19 -44 13 -43 20 -48 38 -26 10 11 8 25 -9 64 l-21 49 -67 7
c-37 3 -84 6 -104 6 -35 0 -39 3 -63 50 -14 28 -26 50 -28 50 -1 0 -9 -5 -19
-10z"/>
<path d="M8119 1751 c-18 -15 -23 -28 -23 -60 2 -72 71 -155 182 -218 77 -43
184 -57 226 -30 35 23 41 67 18 120 -24 53 -34 60 -92 64 -56 3 -114 43 -145
98 -21 39 -23 40 -82 43 -47 2 -65 -1 -84 -17z"/>
<path d="M4777 1463 c-3 -5 -8 -28 -11 -53 -20 -140 -30 -171 -59 -196 -18
-15 -41 -24 -62 -24 -44 0 -50 -11 -25 -54 11 -20 30 -53 41 -73 118 -208 344
-436 568 -572 100 -61 298 -157 307 -148 2 2 -58 66 -134 143 -76 76 -159 168
-185 204 -27 36 -54 72 -61 81 -21 25 -92 132 -99 149 -4 8 -20 38 -37 65 -53
85 -190 374 -212 444 -12 39 -22 49 -31 34z"/>
<path d="M7521 1363 c-18 -49 -36 -98 -41 -110 -6 -15 -45 -40 -109 -73 -75
-37 -99 -54 -95 -65 4 -8 10 -15 15 -15 5 0 56 23 113 52 87 43 105 56 114 82
25 75 54 152 61 158 4 4 21 4 38 -1 21 -6 35 -5 42 2 19 19 13 26 -31 37 -24
6 -50 13 -59 16 -12 3 -23 -17 -48 -83z"/>
<path d="M8775 1418 c-22 -11 -62 -39 -88 -61 -48 -40 -49 -40 -102 -30 -45 8
-55 7 -60 -5 -8 -22 3 -29 69 -41 l58 -11 52 46 c28 25 72 55 97 66 35 16 45
26 41 40 -6 23 -17 22 -67 -4z"/>
<path d="M8538 1163 c-40 -3 -48 -8 -48 -24 0 -16 7 -19 50 -19 l49 0 40 -72
c59 -108 58 -107 126 -109 55 -3 60 -1 63 19 3 20 -1 22 -51 22 l-54 0 -50 92
c-27 51 -56 93 -64 94 -8 0 -35 -1 -61 -3z"/>
<path d="M4377 1083 c-3 -43 -9 -94 -13 -114 -6 -33 -4 -38 25 -52 23 -11 33
-12 38 -4 12 18 33 80 33 97 0 17 -62 149 -71 150 -3 0 -9 -35 -12 -77z"/>
<path d="M8405 920 c-4 -13 1 -30 15 -47 l21 -27 -75 -75 -75 -76 -3 -120 c-3
-114 -2 -120 17 -120 19 0 20 8 23 111 l3 110 83 83 84 84 -36 48 c-42 54 -48
57 -57 29z"/>
</g>
</svg>
